<svg width="53" height="19" viewBox="0 0 53 19" fill="none" xmlns="http://www.w3.org/2000/svg">
<path d="M11.3381 18L7.88278 13.0465C7.7378 13.0626 7.52033 13.0707 7.23037 13.0707H3.41257V18H0.271347V1.08571H7.23037C8.69627 1.08571 9.96887 1.32735 11.0482 1.81061C12.1436 2.29388 12.9812 2.98656 13.5611 3.88865C14.1411 4.79075 14.431 5.86199 14.431 7.10237C14.431 8.37497 14.1169 9.47037 13.4887 10.3886C12.8765 11.3068 11.9905 11.9914 10.8307 12.4424L14.721 18H11.3381ZM11.2656 7.10237C11.2656 6.02307 10.9112 5.19347 10.2024 4.61355C9.49366 4.03363 8.45464 3.74367 7.08539 3.74367H3.41257V10.4852H7.08539C8.45464 10.4852 9.49366 10.1953 10.2024 9.61535C10.9112 9.01932 11.2656 8.18166 11.2656 7.10237ZM25.3394 3.59869C23.8896 3.59869 22.7942 3.92087 22.0532 4.56522C21.3122 5.20958 20.9417 6.16 20.9417 7.41649V8.86629H28.3115V11.5242H20.9417V18H17.8005V7.41649C17.8005 5.37067 18.4529 3.76784 19.7577 2.608C21.0786 1.43205 22.8909 0.844081 25.1944 0.844081C26.161 0.844081 27.0631 0.948788 27.9007 1.1582C28.7384 1.36762 29.4713 1.67369 30.0996 2.07641L29.1089 4.63771C28.1101 3.94503 26.8536 3.59869 25.3394 3.59869ZM40.2157 18.2416C38.5081 18.2416 36.9617 17.8711 35.5763 17.1301C34.2071 16.373 33.1278 15.334 32.3385 14.0131C31.5652 12.6921 31.1786 11.2021 31.1786 9.54286C31.1786 7.88365 31.5733 6.39358 32.3626 5.07265C33.1519 3.75173 34.2312 2.72076 35.6005 1.97975C36.9859 1.22264 38.5323 0.844081 40.2398 0.844081C41.6252 0.844081 42.8897 1.08571 44.0335 1.56898C45.1772 2.05224 46.1437 2.75298 46.9331 3.67118L44.9034 5.58008C43.6791 4.25916 42.1729 3.59869 40.3848 3.59869C39.225 3.59869 38.186 3.85644 37.2678 4.37192C36.3496 4.87129 35.6327 5.57203 35.1172 6.47412C34.6017 7.37622 34.344 8.39913 34.344 9.54286C34.344 10.6866 34.6017 11.7095 35.1172 12.6116C35.6327 13.5137 36.3496 14.2225 37.2678 14.738C38.186 15.2373 39.225 15.487 40.3848 15.487C42.1729 15.487 43.6791 14.8185 44.9034 13.4815L46.9331 15.4145C46.1437 16.3327 45.1691 17.0335 44.0093 17.5167C42.8656 18 41.601 18.2416 40.2157 18.2416ZM50.9262 18.1691C50.3785 18.1691 49.9114 17.9839 49.5248 17.6134C49.1382 17.2268 48.9448 16.7435 48.9448 16.1636C48.9448 15.5676 49.1301 15.0843 49.5006 14.7138C49.8872 14.3433 50.3624 14.158 50.9262 14.158C51.49 14.158 51.9572 14.3433 52.3277 14.7138C52.7143 15.0843 52.9076 15.5676 52.9076 16.1636C52.9076 16.7435 52.7143 17.2268 52.3277 17.6134C51.9411 17.9839 51.4739 18.1691 50.9262 18.1691Z" fill="#4CAD73"/>
</svg>
