<svg width="16" height="19" viewBox="0 0 16 19" fill="none" xmlns="http://www.w3.org/2000/svg">
<path d="M2.85 0H12.35C13.1059 0 13.8308 0.300267 14.3653 0.834746C14.8997 1.36922 15.2 2.09413 15.2 2.85V16.15C15.2 16.9059 14.8997 17.6308 14.3653 18.1653C13.8308 18.6997 13.1059 19 12.35 19H2.85C2.09413 19 1.36922 18.6997 0.834746 18.1653C0.300267 17.6308 0 16.9059 0 16.15V2.85C0 2.09413 0.300267 1.36922 0.834746 0.834746C1.36922 0.300267 2.09413 0 2.85 0ZM3.8 6.65C3.54804 6.65 3.30641 6.75009 3.12825 6.92825C2.95009 7.10641 2.85 7.34804 2.85 7.6C2.85 7.85196 2.95009 8.09359 3.12825 8.27175C3.30641 8.44991 3.54804 8.55 3.8 8.55H11.4C11.652 8.55 11.8936 8.44991 12.0718 8.27175C12.2499 8.09359 12.35 7.85196 12.35 7.6C12.35 7.34804 12.2499 7.10641 12.0718 6.92825C11.8936 6.75009 11.652 6.65 11.4 6.65H3.8ZM3.8 14.25C3.54804 14.25 3.30641 14.3501 3.12825 14.5282C2.95009 14.7064 2.85 14.948 2.85 15.2C2.85 15.452 2.95009 15.6936 3.12825 15.8718C3.30641 16.0499 3.54804 16.15 3.8 16.15H8.55C8.80196 16.15 9.04359 16.0499 9.22175 15.8718C9.39991 15.6936 9.5 15.452 9.5 15.2C9.5 14.948 9.39991 14.7064 9.22175 14.5282C9.04359 14.3501 8.80196 14.25 8.55 14.25H3.8ZM3.8 2.85C3.54804 2.85 3.30641 2.95009 3.12825 3.12825C2.95009 3.30641 2.85 3.54804 2.85 3.8C2.85 4.05196 2.95009 4.29359 3.12825 4.47175C3.30641 4.64991 3.54804 4.75 3.8 4.75H11.4C11.652 4.75 11.8936 4.64991 12.0718 4.47175C12.2499 4.29359 12.35 4.05196 12.35 3.8C12.35 3.54804 12.2499 3.30641 12.0718 3.12825C11.8936 2.95009 11.652 2.85 11.4 2.85H3.8ZM3.8 10.45C3.54804 10.45 3.30641 10.5501 3.12825 10.7282C2.95009 10.9064 2.85 11.148 2.85 11.4C2.85 11.652 2.95009 11.8936 3.12825 12.0718C3.30641 12.2499 3.54804 12.35 3.8 12.35H11.4C11.652 12.35 11.8936 12.2499 12.0718 12.0718C12.2499 11.8936 12.35 11.652 12.35 11.4C12.35 11.148 12.2499 10.9064 12.0718 10.7282C11.8936 10.5501 11.652 10.45 11.4 10.45H3.8Z" fill="#4F4F4F"/>
</svg>
