<svg width="25" height="25" viewBox="0 0 25 25" fill="none" xmlns="http://www.w3.org/2000/svg">
<path d="M6.25001 19.7917C6.25001 20.9375 7.18751 21.875 8.33334 21.875H16.6667C17.8125 21.875 18.75 20.9375 18.75 19.7917V9.375C18.75 8.22917 17.8125 7.29167 16.6667 7.29167H8.33334C7.18751 7.29167 6.25001 8.22917 6.25001 9.375V19.7917ZM18.75 4.16667H16.1458L15.4063 3.42708C15.2188 3.23958 14.9479 3.125 14.6771 3.125H10.3229C10.0521 3.125 9.78126 3.23958 9.59376 3.42708L8.85418 4.16667H6.25001C5.67709 4.16667 5.20834 4.63542 5.20834 5.20833C5.20834 5.78125 5.67709 6.25 6.25001 6.25H18.75C19.3229 6.25 19.7917 5.78125 19.7917 5.20833C19.7917 4.63542 19.3229 4.16667 18.75 4.16667Z" fill="#F24822"/>
</svg>
