<svg width="73" height="72" viewBox="0 0 73 72" fill="none" xmlns="http://www.w3.org/2000/svg">
<circle cx="36.5" cy="36" r="36" fill="#41D195" fill-opacity="0.12"/>
<path d="M36.9999 19.3334C27.8166 19.3334 20.3333 26.8167 20.3333 36C20.3333 45.1834 27.8166 52.6667 36.9999 52.6667C46.1833 52.6667 53.6666 45.1834 53.6666 36C53.6666 26.8167 46.1833 19.3334 36.9999 19.3334ZM44.9666 32.1667L35.5166 41.6167C35.2833 41.85 34.9666 41.9834 34.6333 41.9834C34.2999 41.9834 33.9833 41.85 33.7499 41.6167L29.0333 36.9C28.5499 36.4167 28.5499 35.6167 29.0333 35.1334C29.5166 34.65 30.3166 34.65 30.7999 35.1334L34.6333 38.9667L43.1999 30.4C43.6833 29.9167 44.4833 29.9167 44.9666 30.4C45.4499 30.8834 45.4499 31.6667 44.9666 32.1667Z" fill="#41D195"/>
</svg>
